<mxfile host="app.diagrams.net" modified="2024-03-29T07:53:39.695Z" agent="Mozilla/5.0 (Windows NT 10.0; Win64; x64) AppleWebKit/537.36 (KHTML, like Gecko) Chrome/122.0.0.0 Safari/537.36 OPR/108.0.0.0" etag="toE4qjEpeOcqkU3fJ6Aq" version="24.2.1" type="github">
  <diagram name="Page-1" id="5f0bae14-7c28-e335-631c-24af17079c00">
    <mxGraphModel dx="1380" dy="741" grid="1" gridSize="10" guides="1" tooltips="1" connect="1" arrows="1" fold="1" page="1" pageScale="1" pageWidth="1100" pageHeight="850" background="none" math="0" shadow="0">
      <root>
        <mxCell id="0" />
        <mxCell id="1" parent="0" />
        <mxCell id="vdj9q_atu6wUsFnDW9EK-2" value="&lt;h2&gt;RBOT&#39;s&lt;/h2&gt;&lt;div&gt;&lt;br&gt;&lt;/div&gt;" style="shape=ext;double=1;whiteSpace=wrap;html=1;aspect=fixed;labelBackgroundColor=none;fillColor=#B1DDF0;strokeColor=#BAC8D3;fontColor=#182E3E;" vertex="1" parent="1">
          <mxGeometry x="210" y="150" width="80" height="80" as="geometry" />
        </mxCell>
        <mxCell id="vdj9q_atu6wUsFnDW9EK-3" value="&lt;h1&gt;MQTT BROKER&lt;/h1&gt;&lt;div&gt;&lt;br&gt;&lt;/div&gt;" style="shape=ext;double=1;whiteSpace=wrap;html=1;aspect=fixed;labelBackgroundColor=none;fillColor=#B1DDF0;strokeColor=#BAC8D3;fontColor=#182E3E;" vertex="1" parent="1">
          <mxGeometry x="475" y="120" width="150" height="150" as="geometry" />
        </mxCell>
        <mxCell id="vdj9q_atu6wUsFnDW9EK-4" value="&lt;h2&gt;API&lt;/h2&gt;" style="shape=ext;double=1;whiteSpace=wrap;html=1;aspect=fixed;strokeColor=#BAC8D3;fontColor=#182E3E;fillColor=#B1DDF0;labelBackgroundColor=none;" vertex="1" parent="1">
          <mxGeometry x="475" y="335" width="150" height="150" as="geometry" />
        </mxCell>
        <mxCell id="vdj9q_atu6wUsFnDW9EK-6" value="" style="endArrow=none;dashed=1;html=1;dashPattern=1 3;strokeWidth=2;rounded=0;strokeColor=#EEEEEE;fontColor=default;entryX=0.5;entryY=1;entryDx=0;entryDy=0;exitX=0.5;exitY=0;exitDx=0;exitDy=0;labelBackgroundColor=none;" edge="1" parent="1" source="vdj9q_atu6wUsFnDW9EK-7" target="vdj9q_atu6wUsFnDW9EK-2">
          <mxGeometry width="50" height="50" relative="1" as="geometry">
            <mxPoint x="250" y="320" as="sourcePoint" />
            <mxPoint x="270" y="260" as="targetPoint" />
          </mxGeometry>
        </mxCell>
        <mxCell id="vdj9q_atu6wUsFnDW9EK-7" value="&lt;h2&gt;RBOT&#39;s&lt;/h2&gt;&lt;div&gt;&lt;br&gt;&lt;/div&gt;" style="shape=ext;double=1;whiteSpace=wrap;html=1;aspect=fixed;labelBackgroundColor=none;fillColor=#B1DDF0;strokeColor=#BAC8D3;fontColor=#182E3E;" vertex="1" parent="1">
          <mxGeometry x="210" y="370" width="80" height="80" as="geometry" />
        </mxCell>
        <mxCell id="vdj9q_atu6wUsFnDW9EK-10" value="&lt;h1&gt;DB&lt;/h1&gt;" style="shape=datastore;whiteSpace=wrap;html=1;strokeColor=#BAC8D3;fontColor=#182E3E;fillColor=#B1DDF0;labelBackgroundColor=none;" vertex="1" parent="1">
          <mxGeometry x="830" y="340" width="100" height="140" as="geometry" />
        </mxCell>
        <mxCell id="vdj9q_atu6wUsFnDW9EK-33" style="edgeStyle=orthogonalEdgeStyle;rounded=0;orthogonalLoop=1;jettySize=auto;html=1;strokeColor=#EEEEEE;fontColor=#FFFFFF;" edge="1" parent="1" source="vdj9q_atu6wUsFnDW9EK-29" target="vdj9q_atu6wUsFnDW9EK-3">
          <mxGeometry relative="1" as="geometry" />
        </mxCell>
        <mxCell id="vdj9q_atu6wUsFnDW9EK-34" style="edgeStyle=orthogonalEdgeStyle;rounded=0;orthogonalLoop=1;jettySize=auto;html=1;strokeColor=#EEEEEE;fontColor=#FFFFFF;" edge="1" parent="1" source="vdj9q_atu6wUsFnDW9EK-29" target="vdj9q_atu6wUsFnDW9EK-4">
          <mxGeometry relative="1" as="geometry" />
        </mxCell>
        <mxCell id="vdj9q_atu6wUsFnDW9EK-29" value="" style="shape=doubleArrow;direction=south;whiteSpace=wrap;html=1;strokeColor=#d79b00;fillColor=#ffe6cc;" vertex="1" parent="1">
          <mxGeometry x="535" y="280" width="30" height="50" as="geometry" />
        </mxCell>
        <mxCell id="vdj9q_atu6wUsFnDW9EK-31" style="edgeStyle=orthogonalEdgeStyle;rounded=0;orthogonalLoop=1;jettySize=auto;html=1;strokeColor=#EEEEEE;fontColor=#FFFFFF;" edge="1" parent="1" source="vdj9q_atu6wUsFnDW9EK-30" target="vdj9q_atu6wUsFnDW9EK-10">
          <mxGeometry relative="1" as="geometry" />
        </mxCell>
        <mxCell id="vdj9q_atu6wUsFnDW9EK-32" style="edgeStyle=orthogonalEdgeStyle;rounded=0;orthogonalLoop=1;jettySize=auto;html=1;strokeColor=#EEEEEE;fontColor=#FFFFFF;" edge="1" parent="1" source="vdj9q_atu6wUsFnDW9EK-30" target="vdj9q_atu6wUsFnDW9EK-4">
          <mxGeometry relative="1" as="geometry" />
        </mxCell>
        <mxCell id="vdj9q_atu6wUsFnDW9EK-30" value="" style="shape=doubleArrow;direction=south;whiteSpace=wrap;html=1;strokeColor=#BAC8D3;fontColor=#182E3E;fillColor=#B1DDF0;rotation=90;" vertex="1" parent="1">
          <mxGeometry x="720" y="340" width="20" height="153" as="geometry" />
        </mxCell>
      </root>
    </mxGraphModel>
  </diagram>
</mxfile>
